<svg xmlns="http://www.w3.org/2000/svg" width="978" height="904" viewBox="0 0 978 904"><defs><radialGradient id="a" cy="57.088%" r="41.366%" fx="50%" fy="57.088%"><stop stop-color="#FFA442" offset="0%"/><stop stop-color="#F9535A" offset="100%"/></radialGradient></defs><path fill="url(#a)" fill-rule="evenodd" d="M764.97 478.55c-117.339 0-212.444 95.107-212.444 212.43 0 117.34 95.105 212.45 212.444 212.45 117.32 0 212.43-95.11 212.43-212.45 0-117.323-95.11-212.43-212.43-212.43zm-551.932.017C95.716 478.567.6 573.657.6 690.99c0 117.33 95.116 212.44 212.438 212.44 117.328 0 212.447-95.11 212.447-212.44 0-117.333-95.119-212.423-212.447-212.423zM701.43 213.003c0 117.325-95.103 212.45-212.424 212.45-117.333 0-212.441-95.125-212.441-212.45C276.565 95.685 371.673.568 489.006.568c117.321 0 212.424 95.117 212.424 212.435z"/></svg>